<svg width="146" height="166" viewBox="0 0 146 166" fill="none" xmlns="http://www.w3.org/2000/svg">
<path fill-rule="evenodd" clip-rule="evenodd" d="M51.8454 39.8805C52.5021 38.4548 53.2714 37.3472 53.7797 36.7633C53.7897 38.1407 53.5774 39.3762 53.2487 40.4499C54.2601 40.9378 55.3112 41.621 56.3154 42.5637C55.5416 42.5403 54.2062 42.3528 52.7137 41.8667C52.0256 43.3839 51.1559 44.4315 50.5857 44.9192C50.6243 43.6424 50.893 42.4187 51.2704 41.3148C50.2038 40.8422 49.123 40.2084 48.1595 39.3696C48.9048 39.2823 50.2644 39.3552 51.8454 39.8805Z" fill="url(#paint0_linear_11_46)"/>
<path fill-rule="evenodd" clip-rule="evenodd" d="M46.654 25.5979C47.0911 24.6488 47.6032 23.9116 47.9415 23.5229C47.9482 24.4397 47.8069 25.2621 47.5881 25.9768C48.2613 26.3016 48.9609 26.7564 49.6294 27.3838C49.1143 27.3682 48.2254 27.2435 47.2319 26.9199C46.7739 27.9298 46.195 28.6271 45.8155 28.9518C45.8412 28.1018 46.02 27.2873 46.2712 26.5525C45.5613 26.2379 44.8419 25.8161 44.2005 25.2578C44.6966 25.1996 45.6016 25.2482 46.654 25.5979Z" fill="url(#paint1_linear_11_46)"/>
<path fill-rule="evenodd" clip-rule="evenodd" d="M32.6033 11.4003C33.2601 9.97453 34.0293 8.86701 34.5377 8.28305C34.5476 9.6604 34.3354 10.8959 34.0067 11.9696C35.0181 12.4575 36.0691 13.1407 37.0734 14.0834C36.2995 14.06 34.9641 13.8725 33.4716 13.3864C32.7836 14.9037 31.9138 15.9512 31.3436 16.439C31.3822 15.1621 31.6509 13.9384 32.0283 12.8345C30.9617 12.3619 29.881 11.7281 28.9175 10.8893C29.6627 10.802 31.0223 10.875 32.6033 11.4003Z" fill="url(#paint2_linear_11_46)"/>
<path fill-rule="evenodd" clip-rule="evenodd" d="M30.3769 43.3654C31.3432 41.2678 32.4749 39.6384 33.2229 38.7792C33.2375 40.8057 32.9252 42.6234 32.4416 44.2031C33.9296 44.9209 35.476 45.926 36.9535 47.3129C35.8149 47.2785 33.8503 47.0027 31.6544 46.2875C30.6421 48.5197 29.3626 50.0609 28.5237 50.7785C28.5805 48.9 28.9758 47.0996 29.531 45.4755C27.9618 44.7802 26.3718 43.8477 24.9542 42.6137C26.0506 42.4852 28.0509 42.5926 30.3769 43.3654Z" fill="url(#paint3_linear_11_46)"/>
<circle cx="36.19" cy="29.0092" r="0.846528" transform="rotate(21.3865 36.19 29.0092)" fill="#2F235A"/>
<circle cx="57.1502" cy="18.3653" r="0.846528" transform="rotate(21.3865 57.1502 18.3653)" fill="#FE9076"/>
<circle cx="16.9151" cy="22.9896" r="0.846528" transform="rotate(21.3865 16.9151 22.9896)" fill="#FFA400"/>
<circle cx="35.093" cy="57.0749" r="0.846528" transform="rotate(21.3865 35.093 57.0749)" fill="#23BB86"/>
<path d="M56.5071 14.3193C55.6836 11.1738 52.7109 3.97996 47.409 0.368425" stroke="#FE9076" stroke-width="0.736823" stroke-linecap="round"/>
<path d="M14.4167 19.5745C12.3674 17.0501 6.68876 11.7265 0.368467 10.6274" stroke="#FFA400" stroke-width="0.736823" stroke-linecap="round"/>
<path d="M31.491 58.3051C29.6749 58.9674 25.1031 61.0779 21.3448 64.2213" stroke="#23BB86" stroke-width="0.736823" stroke-linecap="round"/>
<path fill-rule="evenodd" clip-rule="evenodd" d="M93.7959 39.8805C93.1391 38.4548 92.3699 37.3472 91.8615 36.7633C91.8515 38.1407 92.0638 39.3762 92.3925 40.4499C91.3811 40.9378 90.3301 41.621 89.3258 42.5637C90.0997 42.5403 91.4351 42.3528 92.9276 41.8667C93.6156 43.3839 94.4854 44.4315 95.0556 44.9192C95.0169 43.6424 94.7483 42.4187 94.3709 41.3148C95.4375 40.8422 96.5182 40.2084 97.4817 39.3696C96.7365 39.2823 95.3769 39.3552 93.7959 39.8805Z" fill="url(#paint4_linear_11_46)"/>
<path fill-rule="evenodd" clip-rule="evenodd" d="M98.9873 25.5979C98.5501 24.6488 98.0381 23.9116 97.6997 23.5229C97.6931 24.4397 97.8344 25.2621 98.0532 25.9768C97.38 26.3016 96.6804 26.7564 96.0119 27.3838C96.527 27.3682 97.4159 27.2435 98.4093 26.9199C98.8673 27.9298 99.4462 28.6271 99.8258 28.9518C99.8001 28.1018 99.6212 27.2873 99.37 26.5525C100.08 26.2379 100.799 25.8161 101.441 25.2578C100.945 25.1996 100.04 25.2482 98.9873 25.5979Z" fill="url(#paint5_linear_11_46)"/>
<path fill-rule="evenodd" clip-rule="evenodd" d="M113.038 11.4003C112.381 9.97453 111.612 8.86701 111.104 8.28305C111.094 9.6604 111.306 10.8959 111.635 11.9696C110.623 12.4575 109.572 13.1407 108.568 14.0834C109.342 14.06 110.677 13.8725 112.17 13.3864C112.858 14.9037 113.727 15.9512 114.298 16.439C114.259 15.1621 113.99 13.9384 113.613 12.8345C114.68 12.3619 115.76 11.7281 116.724 10.8893C115.979 10.802 114.619 10.875 113.038 11.4003Z" fill="url(#paint6_linear_11_46)"/>
<path fill-rule="evenodd" clip-rule="evenodd" d="M115.264 43.3654C114.298 41.2678 113.166 39.6384 112.418 38.7792C112.404 40.8057 112.716 42.6234 113.2 44.2031C111.712 44.9209 110.165 45.926 108.688 47.3129C109.826 47.2785 111.791 47.0027 113.987 46.2875C114.999 48.5197 116.279 50.0609 117.118 50.7785C117.061 48.9 116.666 47.0996 116.11 45.4755C117.679 44.7802 119.27 43.8477 120.687 42.6137C119.591 42.4852 117.59 42.5926 115.264 43.3654Z" fill="url(#paint7_linear_11_46)"/>
<circle cx="0.846528" cy="0.846528" r="0.846528" transform="matrix(-0.931142 0.364658 0.364658 0.931142 109.931 27.9123)" fill="#2F235A"/>
<circle cx="0.846528" cy="0.846528" r="0.846528" transform="matrix(-0.931142 0.364658 0.364658 0.931142 88.9706 17.2684)" fill="#FE9076"/>
<circle cx="0.846528" cy="0.846528" r="0.846528" transform="matrix(-0.931142 0.364658 0.364658 0.931142 129.206 21.8926)" fill="#FFA400"/>
<circle cx="0.846528" cy="0.846528" r="0.846528" transform="matrix(-0.931142 0.364658 0.364658 0.931142 111.028 55.978)" fill="#23BB86"/>
<path d="M89.1341 14.3193C89.9577 11.1738 92.9303 3.97996 98.2323 0.368425" stroke="#FE9076" stroke-width="0.736823" stroke-linecap="round"/>
<path d="M131.225 19.5745C133.274 17.0501 138.953 11.7265 145.273 10.6274" stroke="#FFA400" stroke-width="0.736823" stroke-linecap="round"/>
<path d="M114.15 58.3051C115.966 58.9674 120.538 61.0779 124.297 64.2213" stroke="#23BB86" stroke-width="0.736823" stroke-linecap="round"/>
<rect x="27.3558" y="103.632" width="89.8505" height="62.1103" fill="url(#paint8_linear_11_46)"/>
<mask id="mask0_11_46" style="mask-type:alpha" maskUnits="userSpaceOnUse" x="27" y="103" width="91" height="63">
<rect x="27.3558" y="103.632" width="89.8505" height="62.1103" fill="#C4C4C4"/>
</mask>
<g mask="url(#mask0_11_46)">
<path d="M31.6071 102.051L92.7891 102.051L78.9605 126.062L17.7785 126.062L31.6071 102.051Z" fill="black" fill-opacity="0.07"/>
<rect x="88.4577" y="103.632" width="89.8505" height="62.1103" fill="url(#paint9_linear_11_46)"/>
</g>
<path d="M27.2763 103.632L88.4583 103.632L76.6398 123.355L15.4578 123.355L27.2763 103.632Z" fill="url(#paint10_linear_11_46)"/>
<mask id="mask1_11_46" style="mask-type:alpha" maskUnits="userSpaceOnUse" x="88" y="103" width="30" height="63">
<rect x="88.4583" y="103.632" width="28.7479" height="62.1103" fill="#C4C4C4"/>
</mask>
<g mask="url(#mask1_11_46)">
<path d="M113.706 103.529L84.9135 103.529L98.4427 126.236L127.236 126.236L113.706 103.529Z" fill="black" fill-opacity="0.07"/>
</g>
<path d="M117.251 103.632L88.4583 103.632L100.277 123.355L129.07 123.355L117.251 103.632Z" fill="url(#paint11_linear_11_46)"/>
<circle cx="59.2067" cy="86.4342" r="8.49082" fill="url(#paint12_linear_11_46)"/>
<circle cx="85.607" cy="75.0844" r="8.20473" fill="url(#paint13_linear_11_46)"/>
<circle cx="67.6975" cy="54.1784" r="6.61631" fill="url(#paint14_linear_11_46)"/>
<circle cx="90.1083" cy="53.1799" r="1.65" fill="#FFA800" fill-opacity="0.23"/>
<circle cx="79.0522" cy="90.6836" r="1.65" fill="#FFA800" fill-opacity="0.23"/>
<circle cx="51.9581" cy="65.2296" r="1.65" fill="#FFA800" fill-opacity="0.23"/>
<path d="M117.418 103.926H27.2846L13.4423 18.5784H134.04L117.418 103.926Z" fill="url(#paint15_linear_11_46)"/>
<defs>
<linearGradient id="paint0_linear_11_46" x1="53.5298" y1="37.6666" x2="50.5308" y2="45.3245" gradientUnits="userSpaceOnUse">
<stop stop-color="#FFE89E"/>
<stop offset="1" stop-color="#FFBF1A"/>
</linearGradient>
<linearGradient id="paint1_linear_11_46" x1="47.7752" y1="24.1242" x2="45.779" y2="29.2215" gradientUnits="userSpaceOnUse">
<stop stop-color="#FFE89E"/>
<stop offset="1" stop-color="#FFBF1A"/>
</linearGradient>
<linearGradient id="paint2_linear_11_46" x1="34.2878" y1="9.18641" x2="31.2888" y2="16.8443" gradientUnits="userSpaceOnUse">
<stop stop-color="#FFE89E"/>
<stop offset="1" stop-color="#FFBF1A"/>
</linearGradient>
<linearGradient id="paint3_linear_11_46" x1="32.8552" y1="40.1083" x2="28.4429" y2="51.3748" gradientUnits="userSpaceOnUse">
<stop stop-color="#FFE89E"/>
<stop offset="1" stop-color="#FFBF1A"/>
</linearGradient>
<linearGradient id="paint4_linear_11_46" x1="92.1114" y1="37.6666" x2="95.1104" y2="45.3245" gradientUnits="userSpaceOnUse">
<stop stop-color="#FFE89E"/>
<stop offset="1" stop-color="#FFBF1A"/>
</linearGradient>
<linearGradient id="paint5_linear_11_46" x1="97.8661" y1="24.1242" x2="99.8623" y2="29.2215" gradientUnits="userSpaceOnUse">
<stop stop-color="#FFE89E"/>
<stop offset="1" stop-color="#FFBF1A"/>
</linearGradient>
<linearGradient id="paint6_linear_11_46" x1="111.353" y1="9.18641" x2="114.353" y2="16.8443" gradientUnits="userSpaceOnUse">
<stop stop-color="#FFE89E"/>
<stop offset="1" stop-color="#FFBF1A"/>
</linearGradient>
<linearGradient id="paint7_linear_11_46" x1="112.786" y1="40.1083" x2="117.198" y2="51.3748" gradientUnits="userSpaceOnUse">
<stop stop-color="#FFE89E"/>
<stop offset="1" stop-color="#FFBF1A"/>
</linearGradient>
<linearGradient id="paint8_linear_11_46" x1="57.37" y1="92.1333" x2="21.5597" y2="190.765" gradientUnits="userSpaceOnUse">
<stop stop-color="#FFD481"/>
<stop offset="1" stop-color="#FA620C"/>
</linearGradient>
<linearGradient id="paint9_linear_11_46" x1="42.6855" y1="99.693" x2="151.366" y2="215.833" gradientUnits="userSpaceOnUse">
<stop stop-color="#FFD481"/>
<stop offset="0.83311" stop-color="#FA620C"/>
</linearGradient>
<linearGradient id="paint10_linear_11_46" x1="28.5354" y1="96.5835" x2="25.6278" y2="138.606" gradientUnits="userSpaceOnUse">
<stop stop-color="#FFD481"/>
<stop offset="1" stop-color="#FA620C"/>
</linearGradient>
<linearGradient id="paint11_linear_11_46" x1="121.794" y1="96.5835" x2="126.966" y2="138.164" gradientUnits="userSpaceOnUse">
<stop stop-color="#FFD481"/>
<stop offset="1" stop-color="#FA620C"/>
</linearGradient>
<linearGradient id="paint12_linear_11_46" x1="59.8497" y1="75.1411" x2="58.2346" y2="98.0599" gradientUnits="userSpaceOnUse">
<stop stop-color="#FF9F81"/>
<stop offset="1" stop-color="#F53838"/>
</linearGradient>
<linearGradient id="paint13_linear_11_46" x1="86.2282" y1="64.1718" x2="84.6676" y2="86.3184" gradientUnits="userSpaceOnUse">
<stop stop-color="#FF9F81"/>
<stop offset="1" stop-color="#F53838"/>
</linearGradient>
<linearGradient id="paint14_linear_11_46" x1="68.1985" y1="45.3785" x2="66.94" y2="63.2376" gradientUnits="userSpaceOnUse">
<stop stop-color="#FF9F81"/>
<stop offset="1" stop-color="#F53838"/>
</linearGradient>
<linearGradient id="paint15_linear_11_46" x1="72.7503" y1="18.5784" x2="72.7503" y2="199.902" gradientUnits="userSpaceOnUse">
<stop stop-color="white" stop-opacity="0"/>
<stop offset="1" stop-color="#FE9277"/>
</linearGradient>
</defs>
</svg>
