<svg width="55" height="55" viewBox="0 0 55 55" fill="none" xmlns="http://www.w3.org/2000/svg">
<rect width="55" height="55" rx="27.5" fill="#FFECEC"/>
<path fill-rule="evenodd" clip-rule="evenodd" d="M27.5 26.3C28.4548 26.3 29.3705 25.9207 30.0456 25.2456C30.7207 24.5704 31.1 23.6548 31.1 22.7C31.1 21.7452 30.7207 20.8295 30.0456 20.1544C29.3705 19.4793 28.4548 19.1 27.5 19.1C26.5452 19.1 25.6296 19.4793 24.9544 20.1544C24.2793 20.8295 23.9 21.7452 23.9 22.7C23.9 23.6548 24.2793 24.5704 24.9544 25.2456C25.6296 25.9207 26.5452 26.3 27.5 26.3ZM22.3987 37.1C20.5769 37.1 19.0422 35.5686 19.7394 33.8854C20.1616 32.8663 20.7803 31.9403 21.5603 31.1603C22.3403 30.3803 23.2663 29.7615 24.2855 29.3394C25.3046 28.9172 26.3969 28.7 27.5 28.7C28.6031 28.7 29.6954 28.9172 30.7145 29.3394C31.7337 29.7615 32.6597 30.3803 33.4397 31.1603C34.2197 31.9403 34.8385 32.8663 35.2606 33.8854C35.9578 35.5686 34.4232 37.1 32.6014 37.1H22.3987Z" fill="#F53838"/>
</svg>
